<svg width="800" height="800" viewBox="0 0 800 800" fill="none" xmlns="http://www.w3.org/2000/svg">
<g clip-path="url(#clip0_663_429)">
<g clip-path="url(#clip1_663_429)">
<rect width="800" height="800" fill="#05533E"/>
<path fill-rule="evenodd" clip-rule="evenodd" d="M0 800V400V-1.93715e-05H400H800V400V800H400H0ZM307.556 164.978C307.289 164.889 306.756 164.622 306.222 164.356C305.778 164 304.267 163.556 303.022 163.289C300.8 162.756 300.622 162.933 298.844 169.156C296.178 177.956 295.644 181.333 296.622 181.333C297.156 181.333 299.289 180.711 301.422 179.911C306.578 178.133 322.133 174.489 327.911 173.689C330.756 173.333 332.267 172.8 331.733 172.267C331.289 171.822 326.311 170.222 320.8 168.8C315.2 167.378 310.044 165.867 309.333 165.6C309.141 165.528 308.942 165.449 308.748 165.373C308.228 165.167 307.75 164.978 307.556 164.978ZM340.444 206.489C364.711 190.133 367.822 187.911 367.022 187.2C366.844 187.022 363.644 186.756 360 186.489C353.511 186.133 342.311 187.289 334.222 189.156C332 189.689 326.667 190.756 322.222 191.556C311.378 193.511 303.022 195.822 295.644 198.844L289.511 201.333L286.933 210.222C285.511 215.111 284 220.267 283.556 221.778C283.329 222.503 282.732 224.638 281.943 227.465C281.184 230.181 280.247 233.535 279.289 236.889C277.333 243.733 275.822 249.422 275.911 249.511C276 249.689 285.067 243.733 296.089 236.356C307.022 228.889 327.022 215.467 340.444 206.489ZM430.222 200.533C404 193.333 389.778 189.156 388.356 188.356C386.044 187.2 385.956 187.2 383.911 191.2C379.911 199.022 375.022 202.844 337.156 227.2C316.8 240.356 293.156 255.822 284.622 261.778C270.933 271.111 268.889 272.889 267.467 276.178L265.867 279.822L270.933 278.133C273.689 277.244 276.8 276 277.778 275.556C279.644 274.578 289.244 271.289 319.556 261.244C348.711 251.556 356.267 249.244 365.778 246.667C370.667 245.333 375.467 243.911 376.444 243.467C378.667 242.489 409.867 234.311 422.222 231.467C427.378 230.311 434.044 228.711 437.156 227.911C444.267 226.044 446.044 226.844 450.222 233.867C455.111 241.867 454.844 242.933 444.267 254.044C439.2 259.378 427.556 271.022 418.311 280.089C399.733 298.222 383.111 315.822 383.111 317.422C383.111 318.133 384.356 318.222 387.378 317.778C396.178 316.444 401.867 315.644 419.556 313.422C439.644 310.933 449.511 309.156 453.156 307.2C455.911 305.778 492.444 268.978 501.956 258.133C505.422 254.133 509.778 248.8 511.733 246.222L515.111 241.689L519.111 242.222C526.844 243.378 530.933 246.844 531.2 252.622C531.289 254.756 530.756 257.333 529.956 258.667C529.156 259.911 521.511 268.089 512.889 276.889C497.067 293.156 483.556 308.089 483.556 309.422C483.556 310.933 487.556 311.2 497.778 310.667C511.2 309.867 512.889 310.578 512.889 317.244C512.889 325.511 512.267 326.756 504.978 332.978C497.6 339.378 497.422 339.378 488 336.889C480.267 334.844 459.111 335.733 456.622 338.133C456.089 338.756 451.556 343.644 446.667 348.889C420 377.867 378.933 422.222 376.356 424.889L373.422 427.911L367.556 425.067C358.311 420.444 357.244 417.156 362.756 409.244C367.022 403.022 377.333 390.667 389.244 377.333C395.378 370.489 401.867 363.289 403.556 361.422C406.578 358.044 416.178 347.644 420.089 343.467C421.156 342.311 421.867 341.333 421.689 341.156C420.978 340.444 369.511 346.044 359.378 347.911C358.489 348.089 356.178 348.533 354.133 348.8C350.933 349.333 348.978 351.022 336.8 363.378C307.733 392.889 279.467 423.822 280.622 424.889C280.978 425.333 284.978 426.578 289.333 427.822C293.778 429.067 311.911 434.311 329.778 439.556C338.471 442.107 347.627 444.785 355.464 447.077L355.515 447.092L355.521 447.094L355.636 447.128L355.669 447.137L355.682 447.141C363.854 449.531 370.566 451.494 373.778 452.444C380.178 454.222 401.333 460.444 420.889 466.222C471.2 480.978 481.6 483.822 482.133 482.756C482.578 481.956 486.489 468.978 490.222 456C492 449.867 495.022 439.467 496.978 432.889C498.933 426.311 501.867 416.267 503.467 410.667C504.536 407.122 506.46 400.585 508.494 393.672L508.499 393.655C509.677 389.652 510.892 385.524 512 381.778C512.707 379.364 513.459 376.805 514.215 374.228C516.69 365.796 519.219 357.178 520.444 352.889C521.805 348.378 524.261 339.946 526.465 332.377L527.18 329.925C527.461 328.96 527.736 328.018 528 327.111C528.47 325.501 528.971 323.78 529.487 322.009L529.511 321.925L529.532 321.855L529.538 321.833L529.546 321.807L529.56 321.759C531.758 314.212 534.2 305.827 535.556 301.333C537.156 295.733 539.644 287.111 541.156 282.222C547.289 262.222 553.778 239.289 553.778 237.956C553.778 237.244 553.067 236.356 552.267 236.178C540.444 232.889 534.933 231.289 526.667 228.889C503.822 222.044 494.044 219.2 483.644 216.356C477.6 214.667 472.356 213.156 472.089 212.889C471.733 212.711 465.511 210.933 458.222 208.978C450.844 206.933 444.089 204.978 443.111 204.444C442.133 204 436.356 202.311 430.222 200.533ZM377.067 289.333C396.8 269.422 413.067 252.8 413.156 252.356C413.689 250.933 409.6 251.644 401.778 254.222C397.6 255.644 387.022 259.022 378.222 261.778C369.422 264.533 358.044 268.089 352.889 269.689C347.733 271.378 336.356 274.933 327.556 277.6C318.756 280.356 301.156 285.867 288.444 289.867C275.733 293.867 264.444 297.333 263.378 297.511C261.156 298.044 260.178 300.444 255.022 318.222C254.204 321.067 253.244 324.425 252.284 327.782C250.844 332.816 249.404 337.849 248.444 341.156C246.044 349.511 245.778 351.111 247.022 350.667C247.672 350.378 253.075 348.739 259.941 346.657L260.008 346.637L260.042 346.626C261.596 346.155 263.225 345.661 264.889 345.156C270.637 343.465 276.992 341.56 281.871 340.098L281.874 340.097L281.883 340.094L281.898 340.09L281.905 340.087L281.916 340.084C284.713 339.246 287.021 338.554 288.444 338.133C296.444 335.644 312.178 331.822 329.511 328L341.244 325.422L377.067 289.333ZM303.51 364.911C304.754 363.464 305.666 362.403 306.044 361.956C307.022 360.889 307.467 360 307.022 360.089C306.578 360.089 298.667 362.044 289.333 364.356C259.022 371.911 237.511 380.089 235.644 384.8C234.222 388.267 229.156 406.4 229.067 408.444C228.889 409.778 229.778 410.4 232.889 411.289C235.111 411.822 241.244 413.6 246.489 415.2C254.667 417.511 256.356 417.778 257.333 416.8C263.111 410.667 289.333 381.422 295.911 373.778C298.739 370.461 301.533 367.211 303.5 364.922L303.51 364.911ZM266.571 580.659L266.569 580.656L266.568 580.652C261.614 568.299 259.611 563.303 252.8 546.844C250.578 541.422 248.356 536.889 247.911 536.889C246.844 536.889 245.6 539.733 235.378 565.333C231.022 576.356 226.933 586.489 226.311 588C225.6 589.422 223.822 593.956 222.311 597.956C216 614.578 213.778 617.778 208.267 617.778C206.667 617.778 205.333 618.133 205.333 618.667C205.333 619.2 210.222 619.556 218.222 619.556C226.222 619.556 231.111 619.2 231.111 618.667C231.111 618.133 229.778 617.778 228.089 617.778C222.933 617.778 223.022 615.733 228.978 600.356L232.178 592H244.978H257.778L259.111 595.111C261.422 600.711 266.667 615.733 266.667 616.8C266.667 617.333 266.044 617.778 265.244 617.778C264.533 617.778 264.178 618.133 264.444 618.667C264.8 619.2 270.4 619.556 278.311 619.556C286.578 619.556 291.556 619.2 291.556 618.667C291.556 618.133 290.222 617.778 288.533 617.778C282.133 617.778 279.733 613.867 268.089 584.444C267.551 583.103 267.047 581.847 266.571 580.659ZM583.911 553.244C584.356 552.8 584.889 549.333 585.067 545.511C585.422 539.644 585.333 538.667 584.089 538.844C583.289 539.022 571.911 539.2 558.844 539.289C543.556 539.467 535.2 539.911 535.556 540.444C535.822 540.978 537.689 541.333 539.556 541.333H539.715C540.969 541.333 541.943 541.332 542.7 541.737C545.335 543.149 545.334 549.48 545.333 577.853V579.556C545.333 617.067 545.244 617.778 540.444 617.778C538.933 617.778 537.778 618.133 537.778 618.578C537.778 619.556 583.022 620.356 584.978 619.378C586.578 618.667 588.444 612.356 588.444 607.644C588.444 603.378 587.2 603.556 585.867 608C584.533 612.622 581.778 614.311 574.756 614.844C567.644 615.467 563.111 614.667 560.8 612.356C559.289 610.844 559.111 609.333 559.111 595.111V579.556H567.911C575.378 579.556 576.978 579.822 579.022 581.422C580.622 582.667 581.333 584.089 581.333 586.044C581.333 591.911 582.933 586.756 583.378 579.289C583.911 571.644 583.467 570.311 581.333 572.889C580.444 573.956 577.956 574.222 569.689 574.222H559.111V559.556V544.889H568C572.8 544.889 577.778 545.333 578.933 545.867C581.156 546.844 583.111 550.044 583.111 552.622C583.111 553.6 583.378 553.778 583.911 553.244ZM117.422 541.333C119.556 541.333 120.8 540.978 120.444 540.444C120.089 539.911 113.778 539.556 104.356 539.556C94.6667 539.556 88.8889 539.911 88.8889 540.444C88.8889 540.889 90.4 541.333 92.3556 541.333C92.51 541.333 92.6604 541.333 92.8068 541.332L92.8284 541.332C94.0456 541.326 94.9884 541.321 95.7186 541.713C98.2269 543.059 98.2261 549.081 98.2225 575.794L98.2222 579.022C98.2222 617.156 98.1333 617.778 93.3333 617.778C91.8222 617.778 90.6667 618.133 90.6667 618.667C90.6667 619.2 96.6222 619.556 106.667 619.556C116.711 619.556 122.667 619.2 122.667 618.667C122.667 618.133 120.889 617.778 118.756 617.778C112.267 617.778 112 616.889 112 596.267V578.667H132.889H153.778V595.467C153.778 615.289 153.244 617.778 148.8 617.778C147.111 617.778 145.778 618.133 145.778 618.667C145.778 619.2 151.822 619.556 162.222 619.556C172 619.556 178.667 619.2 178.667 618.756C178.667 618.222 176.533 617.778 174.044 617.6C169.511 617.333 169.244 617.156 168.267 614.222C167.556 612 167.2 601.422 167.2 578.667C167.111 542.756 167.2 541.956 172.267 541.511C173.778 541.333 175.111 540.889 175.111 540.356C175.111 539.2 144.267 539.289 143.556 540.444C143.2 540.978 144.533 541.333 147.022 541.333C153.333 541.333 153.778 542.578 153.778 559.289V573.333H132.889H112V559.022C112 550.933 112.356 544 112.889 543.022C113.6 541.778 114.756 541.333 117.422 541.333ZM376.533 551.644C374.222 545.956 371.378 543.733 363.467 540.978C360.444 539.911 355.2 539.556 339.822 539.556C327.2 539.556 320 539.911 320 540.444C320 540.889 321.6 541.333 323.556 541.333L323.809 541.333C325.203 541.332 326.277 541.33 327.1 541.784C329.851 543.299 329.806 549.891 329.611 578.518V578.519L329.6 580.178C329.334 617.778 329.333 617.778 324.391 617.778H324.356C322.933 617.778 321.778 618.133 321.778 618.667C321.778 619.2 327.556 619.556 337.422 619.556C347.556 619.556 352.8 619.289 352.444 618.667C352.178 618.133 350.311 617.778 348.444 617.778C343.289 617.778 342.844 616.267 342.756 600L342.667 586.222L346.578 585.956C348.8 585.778 351.378 585.867 352.444 586.133C354.133 586.578 359.467 593.156 365.689 602.489C369.956 608.978 377.156 616.178 380.889 617.867C383.556 619.111 386.667 619.556 393.6 619.556C399.022 619.556 402.667 619.2 402.667 618.667C402.667 618.133 401.6 617.778 400.267 617.778C395.911 617.689 390.844 614.667 385.689 609.067C380 602.933 365.422 585.067 364.711 583.289C364.444 582.756 366.667 579.644 369.6 576.533C377.156 568.356 379.733 559.289 376.533 551.644ZM455.2 541.333C456.622 541.333 457.778 540.889 457.778 540.444C457.778 539.911 452 539.556 442.222 539.556C432.444 539.556 426.667 539.911 426.667 540.444C426.667 540.889 428.178 541.333 430.044 541.333C431.911 541.333 434.222 541.867 435.2 542.578C436.8 543.822 436.889 545.244 436.889 578.844C436.889 617.689 436.889 617.778 431.556 617.778C429.867 617.778 428.444 618.133 428.444 618.667C428.444 619.2 434.222 619.556 444 619.556C453.156 619.556 459.556 619.2 459.556 618.756C459.556 618.222 457.867 617.778 455.822 617.6C450.133 617.156 449.778 615.911 449.778 596.178C449.778 587.022 450.044 579.556 450.489 579.556C450.844 579.556 452.978 581.867 455.289 584.711C463.911 595.378 478.844 611.556 482.844 614.667C488 618.667 491.289 619.467 502.489 619.556C511.2 619.556 514.133 618.4 507.467 617.511C505.511 617.244 501.778 615.644 499.289 613.956C491.644 608.889 460.444 576.178 460.444 573.244C460.444 572.444 466.489 565.956 473.867 558.756C487.467 545.511 493.422 541.333 498.667 541.333C500.089 541.333 501.333 540.889 501.333 540.444C501.333 539.911 496.444 539.556 488.444 539.556C480.444 539.556 475.556 539.911 475.556 540.444C475.556 540.889 476.178 541.333 476.889 541.333C477.689 541.333 478.222 542.133 478.222 543.378C478.222 545.511 466.578 559.111 455.2 570.222L449.778 575.467V560.356C449.778 543.467 450.4 541.333 455.2 541.333ZM687.111 558.844C687.111 549.867 683.378 544.8 674.133 541.333C669.778 539.733 667.2 539.556 649.333 539.556C636.622 539.556 629.333 539.911 629.333 540.444C629.333 540.889 630.933 541.333 632.8 541.333C634.756 541.333 636.889 541.956 637.6 542.667C639.644 544.622 640.356 559.644 639.733 588.267C639.2 616.267 638.844 617.778 633.778 617.778C632.267 617.778 631.111 618.133 631.111 618.667C631.111 619.2 636.889 619.556 646.667 619.556C656.444 619.556 662.222 619.2 662.222 618.667C662.222 618.133 660.622 617.778 658.756 617.778C653.333 617.778 652.711 616.622 652 604.267C651.644 598.222 651.556 591.733 651.733 589.778L652 586.222L656.622 585.956C659.2 585.778 662.044 586.044 662.933 586.578C663.822 587.022 666.756 590.578 669.333 594.4C680.356 610.4 686.133 616.444 692.356 618.578C696.089 619.822 712 619.911 712 618.667C712 618.133 710.667 617.778 709.067 617.778C704.533 617.778 698.933 613.6 691.022 604.356C682.044 593.867 673.778 583.378 673.778 582.578C673.778 582.222 676 579.644 678.667 576.8C684.8 570.311 687.022 565.6 687.111 558.844ZM738.756 615.022C742.222 610.133 740.711 602.489 735.733 599.822C727.467 595.467 718.222 600.089 718.222 608.622C718.222 613.6 719.467 616 723.111 618.4C728.444 621.956 734.756 620.533 738.756 615.022ZM235.378 584.622C235.733 584 238.044 578.222 240.444 571.822C242.844 565.333 245.067 560.267 245.422 560.711C246.756 562.222 254.844 585.867 254.133 586.311C253.156 586.844 236.267 586.667 235.289 586.044C234.933 585.778 234.933 585.156 235.378 584.622ZM343.111 562.578V580.178L345.867 580.8C356.711 582.933 362.4 579.289 364.622 568.711C366.489 559.644 362.667 549.422 356.178 546.311C354.4 545.511 350.844 544.889 348.089 544.889H343.111V562.578ZM652.444 580.356V562.578V544.889H657.6C664.267 544.889 668.978 547.556 672 552.889C673.867 556.267 674.222 558.044 674.133 564C674.133 577.245 668.978 582.4 657.244 580.889L652.444 580.356ZM723.022 602.133C714.933 610.222 723.911 622.667 734.133 617.422C740.533 614.044 740 602.489 733.245 600.089C728.533 598.489 726.222 598.933 723.022 602.133ZM733.156 604.622C734.667 605.867 734.489 606.844 732.533 608.622C730.756 610.044 730.756 610.133 732.533 612.622C734.044 614.667 734.133 615.111 732.978 615.111C732.267 615.111 731.111 614.222 730.578 613.067C728.533 609.245 726.222 609.156 726.222 612.978C726.222 614.133 725.689 615.111 724.978 615.111C724.178 615.111 723.733 613.511 723.645 609.422C723.556 604.622 723.733 603.644 725.067 603.289C727.111 602.756 731.733 603.556 733.156 604.622ZM728.444 607.822C726.844 608 726.222 607.733 726.222 606.667C726.222 605.6 726.844 605.333 728.444 605.511C729.689 605.689 730.756 606.133 730.756 606.667C730.756 607.111 729.689 607.644 728.444 607.822Z" fill="#FAFAFA"/>
</g>
<rect x="0.5" y="0.5" width="799" height="799" stroke="#FAFAFA"/>
</g>
<defs>
<clipPath id="clip0_663_429">
<rect width="800" height="800" fill="white"/>
</clipPath>
<clipPath id="clip1_663_429">
<rect width="800" height="800" fill="white"/>
</clipPath>
</defs>
</svg>
